<svg width="45" height="47" viewBox="0 0 45 47" fill="none" xmlns="http://www.w3.org/2000/svg">
<path d="M22.929 20.3043V28.1343H35.8794C35.3561 31.4928 31.9672 37.9794 22.929 37.9794C15.137 37.9794 8.77409 31.5308 8.77409 23.5676C8.77409 15.6044 15.1389 9.15589 22.929 9.15589C27.3625 9.15589 30.3327 11.0377 32.0338 12.6741L38.2255 6.70319C34.2487 2.99084 29.0921 0.734131 22.929 0.734131C10.3039 0.734131 0.095459 10.9426 0.095459 23.5676C0.095459 36.1926 10.3039 46.4011 22.929 46.4011C36.1077 46.4011 44.8491 37.1364 44.8491 24.089C44.8491 22.5896 44.6874 21.4441 44.4895 20.3043H22.929Z" fill="black"/>
</svg>
