<svg width="39" height="45" viewBox="0 0 39 45" fill="none" xmlns="http://www.w3.org/2000/svg">
<path d="M31.9337 23.8228C31.914 20.2075 33.5492 17.4787 36.8592 15.4691C35.0072 12.8192 32.2095 11.3613 28.5154 11.0756C25.0183 10.7998 21.1961 13.1148 19.7973 13.1148C18.3196 13.1148 14.9309 11.1741 12.2711 11.1741C6.77425 11.2628 0.932617 15.5578 0.932617 24.2956C0.932617 26.8766 1.40546 29.5429 2.35116 32.2946C3.61209 35.9099 8.16324 44.7758 12.9114 44.6281C15.3939 44.569 17.1473 42.8647 20.3785 42.8647C23.5111 42.8647 25.1365 44.6281 27.9046 44.6281C32.6922 44.5591 36.8099 36.501 38.0117 32.8758C31.5889 29.8516 31.9337 24.0099 31.9337 23.8228ZM26.358 7.64746C29.0473 4.45574 28.8011 1.5497 28.7222 0.505493C26.3482 0.643407 23.5997 2.12105 22.0334 3.94349C20.3095 5.89398 19.2949 8.30747 19.5116 11.0263C22.0827 11.2234 24.4272 9.90333 26.358 7.64746Z" fill="black"/>
</svg>
