<svg width="53" height="43" viewBox="0 0 53 43" fill="none" xmlns="http://www.w3.org/2000/svg">
<path d="M52.6448 5.30157C50.7122 6.14887 48.6432 6.73179 46.4626 6.99616C48.6875 5.66118 50.3887 3.54952 51.1998 1.03391C49.1128 2.24902 46.8041 3.12915 44.3493 3.62669C42.3919 1.53145 39.5939 0.212891 36.4888 0.212891C30.5364 0.212891 25.7121 5.03556 25.7121 10.9797C25.7121 11.8353 25.8155 12.6563 25.9945 13.4346C17.0405 13.0159 9.10285 8.71373 3.79413 2.21454C2.86145 3.79746 2.33108 5.63655 2.33108 7.6382C2.33108 11.3837 4.23748 14.6678 7.11927 16.5988C5.35736 16.5479 3.6989 16.0602 2.24569 15.2573V15.387C2.24569 20.6103 5.9567 24.965 10.8828 25.9568C9.98463 26.1949 9.02568 26.3328 8.05195 26.3328C7.36065 26.3328 6.70055 26.2655 6.04209 26.144C7.42797 30.4199 11.3951 33.5332 16.1242 33.6268C12.4477 36.5086 7.78758 38.2261 2.76622 38.2261C1.91071 38.2261 1.05685 38.1851 0.199707 38.0816C4.98954 41.1358 10.6431 42.9224 16.7498 42.9224C36.5643 42.9224 47.392 26.5102 47.392 12.2967C47.392 11.8435 47.392 11.382 47.3575 10.919C49.4708 9.41324 51.3 7.50519 52.745 5.34263L52.6448 5.30157Z" fill="black"/>
</svg>
