<svg width="61" height="61" viewBox="0 0 61 61" fill="none" xmlns="http://www.w3.org/2000/svg">
<path d="M30.4722 25.9812C34.9079 18.9884 38.7987 15.4971 42.1468 15.4971C47.1703 15.4971 50.3427 21.0556 52.1939 28.6009C53.9621 35.8072 53.4497 45.6382 47.1703 45.6382C44.3722 45.6382 40.5192 41.7073 36.7516 36.4652C34.3542 33.162 32.2529 29.6537 30.4722 25.9812Z" stroke="black" stroke-width="6.66878" stroke-linecap="round" stroke-linejoin="round"/>
<path d="M30.4726 25.9812C26.0368 18.9884 22.1461 15.4971 18.7979 15.4971C13.7744 15.4971 10.602 21.0556 8.75088 28.6009C6.9826 35.8072 7.495 45.6382 13.7744 45.6382C16.5725 45.6382 20.4255 41.7073 24.1932 36.4652C26.7049 32.9714 28.7972 29.475 30.4726 25.9812Z" stroke="black" stroke-width="6.66878" stroke-linecap="round" stroke-linejoin="round"/>
</svg>
